<?xml version="1.0" encoding="UTF-8"?>
<svg xmlns="http://www.w3.org/2000/svg" xmlns:xlink="http://www.w3.org/1999/xlink" width="35px" height="35px" viewBox="0 0 35 35" version="1.1">
<defs>
<linearGradient id="linear0" gradientUnits="userSpaceOnUse" x1="609.77" y1="1190.114" x2="609.77" y2="21.084" gradientTransform="matrix(0.0286973,0,0,0.0285711,0.00113253,0)">
<stop offset="0" style="stop-color:rgb(12.54902%,69.019608%,21.960784%);stop-opacity:1;"/>
<stop offset="1" style="stop-color:rgb(37.647059%,83.921569%,41.568627%);stop-opacity:1;"/>
</linearGradient>
</defs>
<g id="surface1">
<path style=" stroke:none;fill-rule:nonzero;fill:rgb(87.843137%,87.843137%,87.843137%);fill-opacity:1;" d="M 29.898438 5.085938 C 26.609375 1.808594 22.234375 0.00390625 17.574219 0 C 7.96875 0 0.152344 7.777344 0.148438 17.339844 C 0.148438 20.398438 0.949219 23.382812 2.472656 26.015625 L 0.00390625 35 L 9.238281 32.589844 C 11.785156 33.972656 14.652344 34.699219 17.566406 34.699219 L 17.574219 34.699219 C 27.175781 34.699219 34.996094 26.917969 35 17.359375 C 35 12.71875 33.191406 8.363281 29.898438 5.085938 Z M 17.574219 31.769531 L 17.566406 31.769531 C 14.96875 31.769531 12.417969 31.074219 10.195312 29.761719 L 9.667969 29.449219 L 4.183594 30.878906 L 5.648438 25.5625 L 5.304688 25.015625 C 3.855469 22.71875 3.089844 20.066406 3.089844 17.34375 C 3.09375 9.394531 9.589844 2.929688 17.578125 2.929688 C 21.449219 2.929688 25.085938 4.433594 27.820312 7.160156 C 30.554688 9.882812 32.058594 13.503906 32.058594 17.355469 C 32.050781 25.304688 25.554688 31.769531 17.574219 31.769531 Z M 17.574219 31.769531 "/>
<path style=" stroke:none;fill-rule:nonzero;fill:url(#linear0);" d="M 0.800781 34.003906 L 3.160156 25.425781 C 1.707031 22.917969 0.941406 20.070312 0.941406 17.152344 C 0.945312 8.027344 8.40625 0.601562 17.570312 0.601562 C 22.015625 0.605469 26.195312 2.328125 29.335938 5.457031 C 32.472656 8.585938 34.203125 12.742188 34.199219 17.167969 C 34.195312 26.292969 26.738281 33.714844 17.570312 33.714844 L 17.5625 33.714844 C 14.777344 33.714844 12.042969 33.019531 9.617188 31.703125 Z M 0.800781 34.003906 "/>
<path style=" stroke:none;fill-rule:evenodd;fill:rgb(100%,100%,100%);fill-opacity:1;" d="M 13.265625 9.980469 C 12.945312 9.265625 12.605469 9.253906 12.300781 9.238281 C 12.046875 9.230469 11.761719 9.230469 11.472656 9.230469 C 11.1875 9.230469 10.71875 9.335938 10.324219 9.765625 C 9.929688 10.195312 8.820312 11.234375 8.820312 13.339844 C 8.820312 15.449219 10.363281 17.484375 10.578125 17.769531 C 10.792969 18.058594 13.554688 22.519531 17.929688 24.238281 C 21.5625 25.664062 22.308594 25.378906 23.09375 25.308594 C 23.882812 25.238281 25.640625 24.277344 26 23.273438 C 26.359375 22.273438 26.359375 21.414062 26.25 21.234375 C 26.144531 21.058594 25.855469 20.949219 25.425781 20.738281 C 24.996094 20.523438 22.878906 19.484375 22.484375 19.34375 C 22.089844 19.199219 21.804688 19.128906 21.515625 19.554688 C 21.230469 19.984375 20.402344 20.949219 20.152344 21.234375 C 19.902344 21.523438 19.648438 21.558594 19.222656 21.34375 C 18.789062 21.132812 17.402344 20.675781 15.761719 19.21875 C 14.480469 18.082031 13.617188 16.679688 13.367188 16.25 C 13.113281 15.820312 13.339844 15.589844 13.554688 15.375 C 13.75 15.183594 13.984375 14.875 14.199219 14.625 C 14.414062 14.378906 14.488281 14.195312 14.628906 13.914062 C 14.773438 13.625 14.699219 13.375 14.59375 13.160156 C 14.488281 12.945312 13.648438 10.828125 13.265625 9.980469 Z M 13.265625 9.980469 "/>
<path style=" stroke:none;fill-rule:nonzero;fill:rgb(100%,100%,100%);fill-opacity:1;" d="M 29.753906 5.03125 C 26.503906 1.792969 22.179688 0.00390625 17.570312 0.00390625 C 8.078125 0.00390625 0.351562 7.695312 0.347656 17.144531 C 0.34375 20.167969 1.136719 23.117188 2.648438 25.71875 L 0.203125 34.601562 L 9.335938 32.214844 C 11.851562 33.582031 14.683594 34.304688 17.566406 34.304688 L 17.570312 34.304688 C 27.066406 34.304688 34.792969 26.609375 34.796875 17.160156 C 34.796875 12.578125 33.007812 8.269531 29.753906 5.03125 Z M 17.570312 31.410156 L 17.566406 31.410156 C 14.996094 31.40625 12.476562 30.722656 10.28125 29.421875 L 9.757812 29.117188 L 4.335938 30.527344 L 5.785156 25.269531 L 5.445312 24.730469 C 4.007812 22.460938 3.253906 19.839844 3.253906 17.148438 C 3.257812 9.292969 9.679688 2.898438 17.578125 2.898438 C 21.402344 2.902344 24.996094 4.386719 27.699219 7.078125 C 30.402344 9.773438 31.890625 13.351562 31.886719 17.160156 C 31.886719 25.015625 25.460938 31.410156 17.570312 31.410156 Z M 17.570312 31.410156 "/>
</g>
</svg>
